<svg width="48" height="36" viewBox="0 0 48 36" fill="none" xmlns="http://www.w3.org/2000/svg">
<g clip-path="url('#clip0_110_2')">
<path fill-rule="evenodd" clip-rule="evenodd" d="M26.6985 19.0833L45.2487 0.533006C44.5727 0.192038 43.8088 0 43 0H5C4.12264 0 3.29805 0.225978 2.58128 0.622905L21.0416 19.0833C22.6037 20.6454 25.1364 20.6454 26.6985 19.0833ZM32.851 18.5876L47.8097 3.62891C47.9336 4.06461 48 4.52455 48 5V33.7366L32.851 18.5876ZM30.7297 20.7089L29.5269 21.9117C26.4027 25.0359 21.3374 25.0359 18.2132 21.9117L17.2825 20.981L0 38.2635V43C0 45.7614 2.23858 48 5 48H43C45.7614 48 48 45.7614 48 43V37.9792L30.7297 20.7089ZM0 34.0208V5C0 4.59886 0.0472387 4.20875 0.136457 3.83494L15.1612 18.8597L0 34.0208Z" fill="white"></path>
</g>
<defs>
<clipPath id="clip0_110_2">
<rect width="48" height="36" rx="6" fill="white"></rect>
</clipPath>
</defs>
</svg>
